<svg version="1.1" id="Layer_1" xmlns="http://www.w3.org/2000/svg" xmlns:xlink="http://www.w3.org/1999/xlink" x="0px" y="0px"
	 width="100%" viewBox="0 0 1600 900" enable-background="new 0 0 1600 900" xml:space="preserve">
<path fill="#FFFFFF" opacity="1.000000" stroke="none" 
	d="
M902.000000,901.000000 
	C601.333313,901.000000 301.166656,901.000000 1.000000,901.000000 
	C1.000000,601.000000 1.000000,301.000000 1.000000,1.000000 
	C534.333313,1.000000 1067.666626,1.000000 1601.000000,1.000000 
	C1601.000000,301.000000 1601.000000,601.000000 1601.000000,901.000000 
	C1368.166626,901.000000 1135.333374,901.000000 902.000000,901.000000 
M1067.964233,540.077026 
	C1067.604004,533.392761 1067.243774,526.708435 1066.973022,519.127319 
	C1065.280029,509.422424 1063.586914,499.717529 1061.956543,489.229492 
	C1055.439453,465.121490 1042.787842,444.940063 1023.003967,429.574951 
	C1001.519104,412.888855 976.856445,404.389862 949.801941,404.115021 
	C904.697998,403.656830 859.585571,404.080933 814.478088,403.857330 
	C809.671509,403.833496 804.874084,401.970886 799.670715,400.424500 
	C792.090210,395.842651 789.706055,388.422119 789.064331,380.280518 
	C788.279236,370.320007 791.595459,361.818970 799.831238,354.941223 
	C804.458984,353.956451 809.084045,352.129486 813.714966,352.114502 
	C873.427979,351.921570 933.141785,352.010590 992.855164,351.894501 
	C995.085571,351.890167 998.247620,351.214966 999.380493,349.677246 
	C1004.261719,343.051849 1008.547302,335.987549 1013.601624,328.684875 
	C1016.586975,323.552826 1019.572327,318.420776 1023.135071,313.043671 
	C1026.123291,308.709229 1029.111572,304.374786 1032.696289,299.718658 
	C1035.498535,295.159058 1038.300781,290.599426 1041.703125,285.719147 
	C1044.831909,281.164154 1047.960693,276.609161 1051.650391,271.671936 
	C1056.977295,263.285767 1062.304199,254.899582 1067.961914,245.992798 
	C1065.199951,245.992798 1063.371216,245.992813 1061.542603,245.992813 
	C980.889465,245.992813 900.236206,245.934052 819.583374,246.080475 
	C811.195068,246.095703 802.685852,246.645844 794.446838,248.133484 
	C775.406616,251.571396 757.771118,258.749023 741.296631,270.009766 
	C737.725159,267.698456 734.246704,265.226013 730.566528,263.103180 
	C712.913391,252.920654 693.841125,246.717468 673.534790,246.165192 
	C639.125671,245.229355 604.688782,245.255463 570.262573,245.027725 
	C547.941101,244.880066 525.617859,245.003708 503.295380,244.995682 
	C499.873871,244.994461 496.782501,245.364899 494.670532,248.731552 
	C492.779419,251.746094 490.478851,254.521606 488.202148,257.272858 
	C482.794769,263.807251 477.118042,270.126434 471.888062,276.797516 
	C467.752686,282.072357 464.370148,287.939972 460.203186,293.186890 
	C454.493896,300.375854 448.183777,307.086914 442.452545,314.259552 
	C436.118195,322.186981 430.145721,330.403656 424.017914,338.496033 
	C420.868866,342.654694 417.724579,346.816956 413.808136,351.995789 
	C417.336792,351.995789 419.306793,351.995789 421.276794,351.995819 
	C503.903229,351.997314 586.529724,351.968109 669.156006,352.097412 
	C672.989929,352.103424 677.094055,352.896820 680.601624,354.412750 
	C689.941223,358.449188 693.460388,366.292389 694.076538,376.145691 
	C695.081543,392.219635 685.459473,404.573425 666.528503,404.274628 
	C615.899048,403.475464 565.248779,403.992676 514.606812,404.040222 
	C512.719299,404.042023 510.832397,404.601166 508.018860,404.976624 
	C477.149780,404.976624 446.280701,404.976624 415.164581,404.976624 
	C415.164581,411.089752 415.164581,416.542267 415.035156,422.914520 
	C415.078644,426.942017 415.122131,430.969513 415.038391,435.824646 
	C415.080048,437.216522 415.121704,438.608429 415.038208,440.901276 
	C415.079681,443.933380 415.121155,446.965485 415.036224,450.899048 
	C415.078705,453.932709 415.121185,456.966339 415.038788,460.918976 
	C415.080292,464.945099 415.121796,468.971252 415.037811,473.899414 
	C415.080139,476.932587 415.122467,479.965729 415.039062,483.892181 
	C415.080688,486.595154 415.122284,489.298126 415.039795,492.925690 
	C415.081177,497.617706 415.122528,502.309753 415.040222,507.931366 
	C415.040222,561.172424 415.040222,614.413513 415.040222,667.724854 
	C446.644592,667.724854 477.558899,667.724854 509.090637,667.724854 
	C509.090637,615.089905 509.090637,562.725891 509.090637,509.998352 
	C511.675598,509.998352 513.651062,509.998322 515.626465,509.998322 
	C568.276978,509.998322 620.927551,510.037781 673.577820,509.916504 
	C677.404907,509.907684 681.229370,508.731445 685.897766,508.023712 
	C701.272461,505.842224 715.753662,501.082672 729.800171,492.974731 
	C733.511353,490.612427 737.222595,488.250122 741.562073,486.190125 
	C744.353394,487.800049 747.144775,489.410004 750.274231,491.626190 
	C767.997986,502.370728 787.211060,509.479340 807.869934,509.786621 
	C854.683350,510.482910 901.514282,510.070343 948.337708,509.952148 
	C957.870483,509.928070 965.337097,513.437256 971.065674,521.805481 
	C972.088013,528.207153 973.110291,534.608826 973.980164,541.763855 
	C972.630188,545.494446 971.280151,549.225037 969.341675,553.266907 
	C963.740784,560.153015 956.403015,562.128174 947.721191,562.100952 
	C888.236328,561.914246 828.750610,561.990967 769.265198,562.060852 
	C767.468567,562.062988 765.060547,562.355469 764.002441,563.498413 
	C761.687073,565.999390 760.057007,569.134827 757.815308,572.625305 
	C755.849792,575.732849 753.884277,578.840454 751.362854,582.331665 
	C748.205505,587.209900 745.048157,592.088196 741.338501,597.343628 
	C739.207581,600.864441 737.076660,604.385254 734.342407,608.230469 
	C731.947876,611.823181 729.553345,615.415955 726.829346,619.618103 
	C722.514832,626.396484 718.200317,633.174805 713.185303,640.049316 
	C707.097595,649.140442 701.009949,658.231567 694.461060,668.011414 
	C697.517639,668.011414 699.501770,668.011414 701.485962,668.011414 
	C783.943848,668.011414 866.401794,668.024719 948.859680,667.970093 
	C952.799194,667.967468 956.762451,667.541931 960.673645,667.010803 
	C984.053040,663.835938 1005.579895,656.080627 1024.710327,640.754517 
	C1031.179077,633.845154 1037.647705,626.935852 1044.678955,619.662048 
	C1046.472900,616.471924 1048.266846,613.281799 1050.677124,609.764038 
	C1052.488403,605.854736 1054.299683,601.945435 1056.686768,597.634766 
	C1058.405884,592.760559 1060.125000,587.886292 1062.018799,582.242981 
	C1062.631714,579.163269 1063.244629,576.083557 1064.239990,572.300842 
	C1065.110596,566.206360 1065.981323,560.111877 1066.968140,553.168335 
	C1067.268311,549.115723 1067.568359,545.063049 1067.964233,540.077026 
M714.500000,560.001160 
	C694.422119,560.001160 674.344238,560.001160 654.479736,560.001160 
	C654.479736,611.786682 654.479736,662.767395 654.479736,713.748108 
	C654.863831,713.895020 655.247986,714.041931 655.632080,714.188782 
	C689.488281,663.055176 723.344482,611.921509 757.721619,560.001160 
	C742.803589,560.001160 729.151794,560.001160 714.500000,560.001160 
M1044.500000,351.995758 
	C1063.236206,351.995758 1081.972412,351.995758 1100.594971,351.995758 
	C1100.594971,306.253143 1100.594971,261.275116 1100.594971,216.297073 
	C1100.199463,216.125687 1099.804077,215.954315 1099.408569,215.782928 
	C1069.490723,260.897949 1039.572876,306.012939 1009.079590,351.995758 
	C1021.540405,351.995758 1032.520142,351.995758 1044.500000,351.995758 
z"/>
<path fill="#EE609C" opacity="1.000000" stroke="none" 
	d="
M508.945221,404.900574 
	C510.832397,404.601166 512.719299,404.042023 514.606812,404.040222 
	C565.248779,403.992676 615.899048,403.475464 666.528503,404.274628 
	C685.459473,404.573425 695.081543,392.219635 694.076538,376.145691 
	C693.460388,366.292389 689.941223,358.449188 680.601624,354.412750 
	C677.094055,352.896820 672.989929,352.103424 669.156006,352.097412 
	C586.529724,351.968109 503.903229,351.997314 421.276794,351.995819 
	C419.306793,351.995789 417.336792,351.995789 413.808136,351.995789 
	C417.724579,346.816956 420.868866,342.654694 424.017914,338.496033 
	C430.145721,330.403656 436.118195,322.186981 442.452545,314.259552 
	C448.183777,307.086914 454.493896,300.375854 460.203186,293.186890 
	C464.370148,287.939972 467.752686,282.072357 471.888062,276.797516 
	C477.118042,270.126434 482.794769,263.807251 488.202148,257.272858 
	C490.478851,254.521606 492.779419,251.746094 494.670532,248.731552 
	C496.782501,245.364899 499.873871,244.994461 503.295380,244.995682 
	C525.617859,245.003708 547.941101,244.880066 570.262573,245.027725 
	C604.688782,245.255463 639.125671,245.229355 673.534790,246.165192 
	C693.841125,246.717468 712.913391,252.920654 730.566528,263.103180 
	C734.246704,265.226013 737.725159,267.698456 741.658691,270.398132 
	C742.681519,271.503540 743.342285,272.220612 744.258057,273.153870 
	C748.956970,277.599762 753.400757,281.829468 757.984131,286.370605 
	C761.707214,291.522919 765.290771,296.363892 768.943848,301.543823 
	C771.030457,305.587738 773.047607,309.292664 775.093384,313.362335 
	C776.803040,318.484222 778.484131,323.241333 780.235352,328.360657 
	C780.879028,330.431091 781.618042,332.103546 781.996582,333.853943 
	C783.446411,340.557617 784.780396,347.286316 786.112488,354.448700 
	C786.378540,359.832825 786.982483,364.776398 786.940857,369.714478 
	C786.850098,380.479187 786.430603,391.241150 786.058594,402.345886 
	C785.605713,403.789886 785.239807,404.892212 784.415100,405.996399 
	C694.330994,405.998840 604.705627,406.006714 515.080322,405.954041 
	C513.035095,405.952850 510.990265,405.267029 508.945221,404.900574 
z"/>
<path fill="#B4DBFF" opacity="1.000000" stroke="none" 
	d="
M784.873901,405.994537 
	C785.239807,404.892212 785.605713,403.789886 786.508667,402.344788 
	C791.387878,401.655090 795.730164,401.308197 800.072388,400.961304 
	C804.874084,401.970886 809.671509,403.833496 814.478088,403.857330 
	C859.585571,404.080933 904.697998,403.656830 949.801941,404.115021 
	C976.856445,404.389862 1001.519104,412.888855 1023.003967,429.574951 
	C1042.787842,444.940063 1055.439453,465.121490 1061.467285,489.616455 
	C967.908081,490.002258 874.838135,489.968475 781.768250,490.044891 
	C771.157227,490.053619 760.546814,490.679993 749.936096,491.019958 
	C747.144775,489.410004 744.353394,487.800049 741.288574,485.761963 
	C741.061707,484.963257 741.108398,484.592651 741.432312,484.024292 
	C745.227478,480.678772 748.745483,477.531067 752.573975,474.244141 
	C756.269348,470.093750 759.654358,466.082581 763.325928,461.890808 
	C765.819824,457.838257 768.027161,453.966339 770.505554,449.894440 
	C772.457703,446.460724 774.138733,443.226929 775.996704,439.699951 
	C776.727966,437.935944 777.282349,436.465088 778.018677,434.661438 
	C779.434875,430.216919 780.668945,426.105164 782.078125,421.637177 
	C783.126831,416.185486 784.000366,411.089996 784.873901,405.994537 
z"/>
<path fill="#B463D8" opacity="1.000000" stroke="none" 
	d="
M685.055054,508.097961 
	C681.229370,508.731445 677.404907,509.907684 673.577820,509.916504 
	C620.927551,510.037781 568.276978,509.998322 515.626465,509.998322 
	C513.651062,509.998322 511.675598,509.998352 509.090637,509.998352 
	C509.090637,562.725891 509.090637,615.089905 509.090637,667.724854 
	C477.558899,667.724854 446.644592,667.724854 415.040222,667.724854 
	C415.040222,614.413513 415.040222,561.172424 415.558258,507.465881 
	C503.690857,507.000275 591.305420,506.992676 678.919983,507.045868 
	C680.965210,507.047119 683.010010,507.731964 685.055054,508.097961 
z"/>
<path fill="#68A6FF" opacity="1.000000" stroke="none" 
	d="
M1024.114868,641.044312 
	C1005.579895,656.080627 984.053040,663.835938 960.673645,667.010803 
	C956.762451,667.541931 952.799194,667.967468 948.859680,667.970093 
	C866.401794,668.024719 783.943848,668.011414 701.485962,668.011414 
	C699.501770,668.011414 697.517639,668.011414 694.461060,668.011414 
	C701.009949,658.231567 707.097595,649.140442 714.013062,640.015991 
	C815.496765,639.988464 916.152710,639.986938 1016.808655,640.043640 
	C1019.244263,640.045044 1021.679443,640.696228 1024.114868,641.044312 
z"/>
<path fill="#B463D8" opacity="1.000000" stroke="none" 
	d="
M715.000000,560.001160 
	C729.151794,560.001160 742.803589,560.001160 757.721619,560.001160 
	C723.344482,611.921509 689.488281,663.055176 655.632080,714.188782 
	C655.247986,714.041931 654.863831,713.895020 654.479736,713.748108 
	C654.479736,662.767395 654.479736,611.786682 654.479736,560.001160 
	C674.344238,560.001160 694.422119,560.001160 715.000000,560.001160 
z"/>
<path fill="#75C0FF" opacity="1.000000" stroke="none" 
	d="
M744.002991,272.937653 
	C743.342285,272.220612 742.681519,271.503540 742.009155,270.473755 
	C757.771118,258.749023 775.406616,251.571396 794.446838,248.133484 
	C802.685852,246.645844 811.195068,246.095703 819.583374,246.080475 
	C900.236206,245.934052 980.889465,245.992813 1061.542603,245.992813 
	C1063.371216,245.992813 1065.199951,245.992798 1067.961914,245.992798 
	C1062.304199,254.899582 1056.977295,263.285767 1050.979980,271.689484 
	C1048.188232,271.471344 1046.066895,271.030609 1043.945312,271.029633 
	C967.401001,270.994324 890.856689,271.000000 814.312378,271.000000 
	C792.513855,271.000000 770.715149,270.958374 748.917358,271.083588 
	C747.275757,271.093018 745.640930,272.291779 744.002991,272.937653 
z"/>
<path fill="#AED5FF" opacity="1.000000" stroke="none" 
	d="
M750.105164,491.323059 
	C760.546814,490.679993 771.157227,490.053619 781.768250,490.044891 
	C874.838135,489.968475 967.908081,490.002258 1061.435913,490.008026 
	C1063.586914,499.717529 1065.280029,509.422424 1066.471069,519.566956 
	C1036.178223,520.004395 1006.387390,519.982971 976.596741,520.045654 
	C974.712402,520.049622 972.829529,520.708923 970.945984,521.063354 
	C965.337097,513.437256 957.870483,509.928070 948.337708,509.952148 
	C901.514282,510.070343 854.683350,510.482910 807.869934,509.786621 
	C787.211060,509.479340 767.997986,502.370728 750.105164,491.323059 
z"/>
<path fill="#71ACFF" opacity="1.000000" stroke="none" 
	d="
M1024.412598,640.899414 
	C1021.679443,640.696228 1019.244263,640.045044 1016.808655,640.043640 
	C916.152710,639.986938 815.496765,639.988464 714.363281,639.967896 
	C718.200317,633.174805 722.514832,626.396484 727.449829,619.310303 
	C828.303467,619.001648 928.536621,618.985718 1028.769775,619.043701 
	C1033.885498,619.046631 1039.000854,619.684387 1044.116455,620.026550 
	C1037.647705,626.935852 1031.179077,633.845154 1024.412598,640.899414 
z"/>
<path fill="#EE609C" opacity="1.000000" stroke="none" 
	d="
M1044.000000,351.995758 
	C1032.520142,351.995758 1021.540405,351.995758 1009.079590,351.995758 
	C1039.572876,306.012939 1069.490723,260.897949 1099.408569,215.782928 
	C1099.804077,215.954315 1100.199463,216.125687 1100.594971,216.297073 
	C1100.594971,261.275116 1100.594971,306.253143 1100.594971,351.995758 
	C1081.972412,351.995758 1063.236206,351.995758 1044.000000,351.995758 
z"/>
<path fill="#E960A2" opacity="1.000000" stroke="none" 
	d="
M784.415100,405.996399 
	C784.000366,411.089996 783.126831,416.185486 781.617798,421.639435 
	C659.043152,421.996887 537.103882,421.995850 415.164581,421.994812 
	C415.164581,416.542267 415.164581,411.089752 415.164581,404.976624 
	C446.280701,404.976624 477.149780,404.976624 508.482056,404.938599 
	C510.990265,405.267029 513.035095,405.952850 515.080322,405.954041 
	C604.705627,406.006714 694.330994,405.998840 784.415100,405.996399 
z"/>
<path fill="#93CEFF" opacity="1.000000" stroke="none" 
	d="
M786.157593,354.005646 
	C784.780396,347.286316 783.446411,340.557617 781.996582,333.853943 
	C781.618042,332.103546 780.879028,330.431091 780.691406,328.361298 
	C856.354187,327.999817 931.631165,327.991394 1006.908020,328.045410 
	C1008.955505,328.046875 1011.002502,328.722046 1013.049683,329.083069 
	C1008.547302,335.987549 1004.261719,343.051849 999.380493,349.677246 
	C998.247620,351.214966 995.085571,351.890167 992.855164,351.894501 
	C933.141785,352.010590 873.427979,351.921570 813.714966,352.114502 
	C809.084045,352.129486 804.458984,353.956451 799.041504,354.936401 
	C794.220337,354.622955 790.189026,354.314301 786.157593,354.005646 
z"/>
<path fill="#E261AA" opacity="1.000000" stroke="none" 
	d="
M415.099854,422.454651 
	C537.103882,421.995850 659.043152,421.996887 781.442749,421.995667 
	C780.668945,426.105164 779.434875,430.216919 777.564331,434.663147 
	C656.340515,434.997437 535.753052,434.997223 415.165649,434.997009 
	C415.122131,430.969513 415.078644,426.942017 415.099854,422.454651 
z"/>
<path fill="#82B8FF" opacity="1.000000" stroke="none" 
	d="
M741.890808,596.966431 
	C745.048157,592.088196 748.205505,587.209900 752.030029,582.313965 
	C754.820679,582.530884 756.944092,582.969910 759.067627,582.970703 
	C859.993164,583.008362 960.918701,583.008057 1061.844238,583.012085 
	C1060.125000,587.886292 1058.405884,592.760559 1055.920898,597.823486 
	C955.685852,598.008179 856.216858,598.018921 756.747803,597.956055 
	C751.795288,597.952881 746.843140,597.310974 741.890808,596.966431 
z"/>
<path fill="#BC63D1" opacity="1.000000" stroke="none" 
	d="
M685.476440,508.060822 
	C683.010010,507.731964 680.965210,507.047119 678.919983,507.045868 
	C591.305420,506.992676 503.690857,507.000275 415.620117,507.001099 
	C415.122528,502.309753 415.081177,497.617706 415.557983,492.462952 
	C517.985596,492.000153 619.895020,491.992767 721.804443,492.043976 
	C724.236816,492.045197 726.668884,492.700958 729.101074,493.051453 
	C715.753662,501.082672 701.272461,505.842224 685.476440,508.060822 
z"/>
<path fill="#CD62BF" opacity="1.000000" stroke="none" 
	d="
M763.039307,462.071442 
	C759.654358,466.082581 756.269348,470.093750 752.285889,473.883911 
	C749.571289,473.441528 747.455322,473.027130 745.339233,473.026520 
	C635.280579,472.994629 525.221924,472.997864 415.163300,472.997375 
	C415.121796,468.971252 415.080292,464.945099 415.557434,460.459473 
	C422.239594,460.000000 428.403107,460.000000 434.566589,460.000000 
	C541.844666,460.000000 649.122742,459.987610 756.400757,460.086426 
	C758.614197,460.088470 760.826477,461.380951 763.039307,462.071442 
z"/>
<path fill="#7AC2FF" opacity="1.000000" stroke="none" 
	d="
M744.258057,273.153870 
	C745.640930,272.291779 747.275757,271.093018 748.917358,271.083588 
	C770.715149,270.958374 792.513855,271.000000 814.312378,271.000000 
	C890.856689,271.000000 967.401001,270.994324 1043.945312,271.029633 
	C1046.066895,271.030609 1048.188232,271.471344 1050.699707,271.880585 
	C1047.960693,276.609161 1044.831909,281.164154 1040.925781,285.866272 
	C946.047058,286.028656 851.945801,286.043915 757.844543,286.059204 
	C753.400757,281.829468 748.956970,277.599762 744.258057,273.153870 
z"/>
<path fill="#90C1FF" opacity="1.000000" stroke="none" 
	d="
M758.147095,572.011108 
	C760.057007,569.134827 761.687073,565.999390 764.002441,563.498413 
	C765.060547,562.355469 767.468567,562.062988 769.265198,562.060852 
	C828.750610,561.990967 888.236328,561.914246 947.721191,562.100952 
	C956.403015,562.128174 963.740784,560.153015 970.024536,553.284851 
	C972.661438,553.535217 974.615112,553.967041 976.569519,553.970215 
	C1006.663635,554.018799 1036.757812,554.011597 1066.852051,554.017395 
	C1065.981323,560.111877 1065.110596,566.206360 1063.646973,572.590088 
	C1060.936523,572.586243 1058.819458,572.037537 1056.702026,572.036682 
	C957.183716,571.998291 857.665344,572.007385 758.147095,572.011108 
z"/>
<path fill="#7FC4FF" opacity="1.000000" stroke="none" 
	d="
M757.984131,286.370605 
	C851.945801,286.043915 946.047058,286.028656 1040.625732,286.026581 
	C1038.300781,290.599426 1035.498535,295.159058 1031.920776,299.865997 
	C945.582336,300.008911 860.019409,299.996857 774.456543,300.050323 
	C772.595520,300.051514 770.735046,300.803223 768.874329,301.204834 
	C765.290771,296.363892 761.707214,291.522919 757.984131,286.370605 
z"/>
<path fill="#8AC9FF" opacity="1.000000" stroke="none" 
	d="
M1013.325684,328.883972 
	C1011.002502,328.722046 1008.955505,328.046875 1006.908020,328.045410 
	C931.631165,327.991394 856.354187,327.999817 780.621216,327.999084 
	C778.484131,323.241333 776.803040,318.484222 775.556763,313.363159 
	C855.856995,312.999451 935.722412,312.997284 1015.587830,313.012115 
	C1017.911133,313.012543 1020.234375,313.192474 1022.557678,313.288696 
	C1019.572327,318.420776 1016.586975,323.552826 1013.325684,328.883972 
z"/>
<path fill="#D861B3" opacity="1.000000" stroke="none" 
	d="
M775.819763,439.993134 
	C774.138733,443.226929 772.457703,446.460724 770.016479,449.863800 
	C651.225159,450.021271 533.193909,450.009430 415.162628,449.997589 
	C415.121155,446.965485 415.079681,443.933380 415.557129,440.450623 
	C535.990601,439.997711 655.905212,439.995422 775.819763,439.993134 
z"/>
<path fill="#D362B9" opacity="1.000000" stroke="none" 
	d="
M415.099426,450.448303 
	C533.193909,450.009430 651.225159,450.021271 769.745483,450.063751 
	C768.027161,453.966339 765.819824,457.838257 763.325928,461.890808 
	C760.826477,461.380951 758.614197,460.088470 756.400757,460.086426 
	C649.122742,459.987610 541.844666,460.000000 434.566589,460.000000 
	C428.403107,460.000000 422.239594,460.000000 415.619873,460.000000 
	C415.121185,456.966339 415.078705,453.932709 415.099426,450.448303 
z"/>
<path fill="#7CB4FF" opacity="1.000000" stroke="none" 
	d="
M741.614624,597.155029 
	C746.843140,597.310974 751.795288,597.952881 756.747803,597.956055 
	C856.216858,598.018921 955.685852,598.008179 1055.632812,598.024170 
	C1054.299683,601.945435 1052.488403,605.854736 1050.079102,609.615479 
	C1047.509155,609.311218 1045.537109,609.019836 1043.565186,609.019409 
	C942.738953,608.997314 841.912659,609.006409 741.086426,608.954346 
	C739.039368,608.953308 736.992615,608.270691 734.945740,607.906067 
	C737.076660,604.385254 739.207581,600.864441 741.614624,597.155029 
z"/>
<path fill="#89BDFF" opacity="1.000000" stroke="none" 
	d="
M757.981201,572.318176 
	C857.665344,572.007385 957.183716,571.998291 1056.702026,572.036682 
	C1058.819458,572.037537 1060.936523,572.586243 1063.455566,572.941589 
	C1063.244629,576.083557 1062.631714,579.163269 1061.931519,582.627563 
	C960.918701,583.008057 859.993164,583.008362 759.067627,582.970703 
	C756.944092,582.969910 754.820679,582.530884 752.307983,582.122192 
	C753.884277,578.840454 755.849792,575.732849 757.981201,572.318176 
z"/>
<path fill="#C562C7" opacity="1.000000" stroke="none" 
	d="
M415.100555,473.448395 
	C525.221924,472.997864 635.280579,472.994629 745.339233,473.026520 
	C747.455322,473.027130 749.571289,473.441528 751.975403,474.023132 
	C748.745483,477.531067 745.227478,480.678772 741.142822,483.690308 
	C738.449341,483.369415 736.322449,483.023590 734.195496,483.023071 
	C627.851929,482.996368 521.508362,482.999268 415.164795,482.998901 
	C415.122467,479.965729 415.080139,476.932587 415.100555,473.448395 
z"/>
<path fill="#85C7FF" opacity="1.000000" stroke="none" 
	d="
M1022.846375,313.166199 
	C1020.234375,313.192474 1017.911133,313.012543 1015.587830,313.012115 
	C935.722412,312.997284 855.856995,312.999451 775.528198,312.998352 
	C773.047607,309.292664 771.030457,305.587738 768.943848,301.543823 
	C770.735046,300.803223 772.595520,300.051514 774.456543,300.050323 
	C860.019409,299.996857 945.582336,300.008911 1031.622559,300.026855 
	C1029.111572,304.374786 1026.123291,308.709229 1022.846375,313.166199 
z"/>
<path fill="#76B0FF" opacity="1.000000" stroke="none" 
	d="
M734.644043,608.068237 
	C736.992615,608.270691 739.039368,608.953308 741.086426,608.954346 
	C841.912659,609.006409 942.738953,608.997314 1043.565186,609.019409 
	C1045.537109,609.019836 1047.509155,609.311218 1049.770874,609.779297 
	C1048.266846,613.281799 1046.472900,616.471924 1044.397705,619.844299 
	C1039.000854,619.684387 1033.885498,619.046631 1028.769775,619.043701 
	C928.536621,618.985718 828.303467,619.001648 727.614563,619.005554 
	C729.553345,615.415955 731.947876,611.823181 734.644043,608.068237 
z"/>
<path fill="#C063CC" opacity="1.000000" stroke="none" 
	d="
M415.101929,483.445557 
	C521.508362,482.999268 627.851929,482.996368 734.195496,483.023071 
	C736.322449,483.023590 738.449341,483.369415 740.865723,483.888123 
	C741.108398,484.592651 741.061707,484.963257 740.974426,485.610840 
	C737.222595,488.250122 733.511353,490.612427 729.450623,493.013092 
	C726.668884,492.700958 724.236816,492.045197 721.804443,492.043976 
	C619.895020,491.992767 517.985596,492.000153 415.620056,492.000671 
	C415.122284,489.298126 415.080688,486.595154 415.101929,483.445557 
z"/>
<path fill="#A0CCFF" opacity="1.000000" stroke="none" 
	d="
M971.005859,521.434448 
	C972.829529,520.708923 974.712402,520.049622 976.596741,520.045654 
	C1006.387390,519.982971 1036.178223,520.004395 1066.426270,520.015381 
	C1067.243774,526.708435 1067.604004,533.392761 1067.459961,540.540039 
	C1036.014771,541.005493 1005.073669,541.007996 974.132568,541.010498 
	C973.110291,534.608826 972.088013,528.207153 971.005859,521.434448 
z"/>
<path fill="#DD61AE" opacity="1.000000" stroke="none" 
	d="
M775.996704,439.699951 
	C655.905212,439.995422 535.990601,439.997711 415.619690,440.000153 
	C415.121704,438.608429 415.080048,437.216522 415.102020,435.410828 
	C535.753052,434.997223 656.340515,434.997437 777.382324,434.995941 
	C777.282349,436.465088 776.727966,437.935944 775.996704,439.699951 
z"/>
<path fill="#99C7FF" opacity="1.000000" stroke="none" 
	d="
M974.056396,541.387207 
	C1005.073669,541.007996 1036.014771,541.005493 1067.412109,541.006714 
	C1067.568359,545.063049 1067.268311,549.115723 1066.910156,553.592896 
	C1036.757812,554.011597 1006.663635,554.018799 976.569519,553.970215 
	C974.615112,553.967041 972.661438,553.535217 970.318726,553.129211 
	C971.280151,549.225037 972.630188,545.494446 974.056396,541.387207 
z"/>
<path fill="#AED5FF" opacity="1.000000" stroke="none" 
	d="
M786.112549,354.448700 
	C790.189026,354.314301 794.220337,354.622955 798.670288,354.997803 
	C791.595459,361.818970 788.279236,370.320007 789.064331,380.280518 
	C789.706055,388.422119 792.090210,395.842651 799.871582,400.692902 
	C795.730164,401.308197 791.387878,401.655090 786.595581,402.003113 
	C786.430603,391.241150 786.850098,380.479187 786.940857,369.714478 
	C786.982483,364.776398 786.378540,359.832825 786.112549,354.448700 
z"/>
</svg>